HIERARCHY
ROOT SpineBase
{
  OFFSET 0.000000 0.000000 0.000000
  CHANNELS 6 Xposition Yposition Zposition Zrotation Xrotation Yrotation
  JOINT SpineMid
  {
    OFFSET 0.000000 35.579037 0.000000
    CHANNELS 3 Zrotation Xrotation Yrotation
    JOINT SpineShoulder
    {
      OFFSET -0.026499 26.939034 -0.940904
      CHANNELS 3 Zrotation Xrotation Yrotation
      JOINT Neck
      {
        OFFSET 0.034216 8.907968 -0.734257
        CHANNELS 3 Zrotation Xrotation Yrotation
        JOINT Head
        {
          OFFSET 1.577619 10.827611 4.302814
          CHANNELS 3 Zrotation Xrotation Yrotation
          End Site
          {
            OFFSET 0 0 0
          }
        }
      }
      JOINT ShoulderLeft
      {
        OFFSET -13.410177 -4.611849 -1.741951
        CHANNELS 3 Zrotation Xrotation Yrotation
        JOINT ElbowLeft
        {
          OFFSET 18.887779 -16.762432 -8.526536
          CHANNELS 3 Zrotation Xrotation Yrotation
          JOINT WristLeft
          {
            OFFSET 12.555296 -22.462223 -1.393207
            CHANNELS 3 Zrotation Xrotation Yrotation
            JOINT HandLeft
            {
              OFFSET 0.050399 -9.005553 2.146642
              CHANNELS 3 Zrotation Xrotation Yrotation
              JOINT HandTipLeft
              {
                OFFSET 3.879400 -7.774855 -0.727197
                CHANNELS 3 Zrotation Xrotation Yrotation
                End Site
                {
                  OFFSET 0 0 0
                }
              }
              JOINT ThumbLeft
              {
                OFFSET -2.725142 -0.185298 -3.771125
                CHANNELS 3 Zrotation Xrotation Yrotation
                End Site
                {
                  OFFSET 0 0 0
                }
              }
            }
          }
        }
      }
      JOINT ShoulderRight
      {
        OFFSET 9.777518 -5.448046 -12.367502
        CHANNELS 3 Zrotation Xrotation Yrotation
        JOINT ElbowRight
        {
          OFFSET 5.463389 -25.097152 -0.841570
          CHANNELS 3 Zrotation Xrotation Yrotation
          JOINT WristRight
          {
            OFFSET 5.883728 -24.033955 5.623675
            CHANNELS 3 Zrotation Xrotation Yrotation
            JOINT HandRight
            {
              OFFSET -1.522612 -4.789755 -0.815683
              CHANNELS 3 Zrotation Xrotation Yrotation
              JOINT HandTipRight
              {
                OFFSET 0.365379 -4.100031 -0.680063
                CHANNELS 3 Zrotation Xrotation Yrotation
                End Site
                {
                  OFFSET 0 0 0
                }
              }
              JOINT ThumbRight
              {
                OFFSET -2.559721 3.344668 -3.494469
                CHANNELS 3 Zrotation Xrotation Yrotation
                End Site
                {
                  OFFSET 0 0 0
                }
              }
            }
          }
        }
      }
    }
  }
  JOINT HipLeft
  {
    OFFSET -5.722011 0.938244 -1.079624
    CHANNELS 3 Zrotation Xrotation Yrotation
    JOINT KneeLeft
    {
      OFFSET -0.408941 -34.272918 -0.148019
      CHANNELS 3 Zrotation Xrotation Yrotation
      JOINT AnkleLeft
      {
        OFFSET -0.567972 -35.582333 1.475009
        CHANNELS 3 Zrotation Xrotation Yrotation
        JOINT FootLeft
        {
          OFFSET 10.620743 -4.400084 -8.111099
          CHANNELS 3 Zrotation Xrotation Yrotation
          End Site
          {
            OFFSET 0 0 0
          }
        }
      }
    }
  }
  JOINT HipRight
  {
    OFFSET 6.328566 2.794735 -6.551835
    CHANNELS 3 Zrotation Xrotation Yrotation
    JOINT KneeRight
    {
      OFFSET 0.369781 -34.590740 -3.952519
      CHANNELS 3 Zrotation Xrotation Yrotation
      JOINT AnkleRight
      {
        OFFSET -2.758826 -35.985162 -1.998139
        CHANNELS 3 Zrotation Xrotation Yrotation
        JOINT FootRight
        {
          OFFSET -2.435939 -4.814095 2.125668
          CHANNELS 3 Zrotation Xrotation Yrotation
          End Site
          {
            OFFSET 0 0 0
          }
        }
      }
    }
  }
}
MOTION
Frames: 9
Frame Time: 0.033333
-25.344736 73.317091 255.003700 -0.000000 0.000000 24.422973 -0.000000 0.000000 -24.422973 -0.000000 0.000000 0.000000 -0.000000 0.000000 0.000000 0.000000 0.000000 0.000000 -0.000000 0.000000 0.000000 -0.000000 0.000000 0.000000 -0.000000 0.000000 0.000000 -0.000000 0.000000 0.000000 0.000000 0.000000 0.000000 0.000000 0.000000 0.000000 -0.000000 0.000000 0.000000 -0.000000 0.000000 0.000000 -0.000000 0.000000 0.000000 -0.000000 0.000000 0.000000 0.000000 0.000000 0.000000 0.000000 0.000000 0.000000 -0.000000 0.000000 -24.422973 -0.000000 0.000000 0.000000 -0.000000 0.000000 0.000000 0.000000 0.000000 0.000000 -0.000000 0.000000 -24.422973 -0.000000 0.000000 0.000000 -0.000000 0.000000 0.000000 0.000000 0.000000 0.000000
-25.396918 73.584366 254.966602 -0.065631 0.028278 25.039626 0.047494 -0.053398 -25.039587 -0.000000 0.000000 0.000000 -0.000000 0.000000 0.000000 0.000000 0.000000 0.000000 -0.000000 0.000000 0.000000 -0.000000 0.000000 0.000000 -0.000000 0.000000 0.000000 -0.000000 0.000000 0.000000 0.000000 0.000000 0.000000 0.000000 0.000000 0.000000 -0.000000 0.000000 0.000000 -0.000000 0.000000 0.000000 -0.000000 0.000000 0.000000 0.845267 1.317875 -0.032395 0.000000 0.000000 0.000000 0.000000 0.000000 0.000000 -1.485586 -0.207512 -25.027953 2.573380 1.532892 -0.009658 -5.145763 0.246780 10.158375 0.000000 0.000000 0.000000 0.047494 -0.053398 -25.039587 -0.000000 0.000000 0.000000 1.135275 0.844034 0.066394 0.000000 0.000000 0.000000
-25.438307 73.810162 254.932350 -0.117806 0.050385 25.566318 0.084528 -0.096291 -25.566195 -0.000000 0.000000 0.000000 -0.000000 0.000000 0.000000 0.000000 0.000000 0.000000 -0.000000 0.000000 0.000000 -0.000000 0.000000 0.000000 0.836829 0.632386 0.198651 -0.839067 -0.629413 -0.207878 0.000000 0.000000 0.000000 0.000000 0.000000 0.000000 -0.000000 0.000000 0.000000 -0.000000 0.000000 0.000000 -0.000000 0.000000 0.000000 1.754588 2.468497 -0.108306 0.000000 0.000000 0.000000 0.000000 0.000000 0.000000 -2.618758 -0.346726 -25.549966 4.498296 2.689516 -0.063188 -9.632348 0.250201 19.805208 0.000000 0.000000 0.000000 0.084528 -0.096291 -25.566195 -0.000000 0.000000 0.000000 2.408060 1.547786 0.251856 0.000000 0.000000 0.000000
-25.468902 73.994477 254.900944 -0.156272 0.066207 26.001527 0.111430 -0.128014 -26.001312 -0.000000 0.000000 0.000000 -0.000000 0.000000 0.000000 0.000000 0.000000 0.000000 -0.000000 0.000000 0.000000 -0.000000 0.000000 0.000000 1.491011 1.232579 0.347153 -1.498793 -1.223104 -0.379192 0.000000 0.000000 0.000000 0.000000 0.000000 0.000000 -0.000000 0.000000 0.000000 0.150909 0.838118 0.239723 -0.641300 -1.626913 0.081457 3.234509 4.222231 -0.600054 0.000000 0.000000 0.000000 0.000000 0.000000 0.000000 -3.392459 -0.432054 -25.983823 5.787782 3.478930 -0.122146 -12.710096 0.280342 27.265049 0.000000 0.000000 0.000000 0.111430 -0.128014 -26.001312 -0.000000 0.000000 0.000000 3.819497 2.114551 0.560546 0.000000 0.000000 0.000000
-25.488703 74.137311 254.872385 -0.180835 0.075660 26.344103 0.128480 -0.148049 -26.343818 -0.000000 0.000000 0.000000 -0.000000 0.000000 0.000000 0.000000 0.000000 0.000000 0.635416 0.484949 0.218693 -0.637285 -0.482490 -0.224066 2.271926 1.993097 0.515334 -2.710721 -1.054822 -0.109731 0.000000 0.000000 0.000000 0.000000 0.000000 0.000000 -0.000000 0.000000 0.000000 0.224857 1.219053 0.349369 -0.866030 -3.107646 0.330551 4.457137 6.098841 -1.223267 0.000000 0.000000 0.000000 0.000000 0.000000 0.000000 -3.802643 -0.475084 -26.326295 6.450815 3.909437 -0.161265 -13.969079 0.754553 31.509624 0.000000 0.000000 0.000000 0.128480 -0.148049 -26.343818 -0.000000 0.000000 0.000000 5.371123 2.548334 0.997587 0.000000 0.000000 0.000000
-25.497710 74.238666 254.846672 -0.191367 0.078690 26.593249 0.135896 -0.156031 -26.592933 -0.000000 0.000000 0.000000 0.774748 -0.496730 -0.232780 0.000000 0.000000 0.000000 0.769487 0.592328 0.269293 -1.575606 -0.868125 -0.396581 3.949914 3.177285 0.783979 -3.983359 -1.560189 -0.169479 0.000000 0.000000 0.000000 0.000000 0.000000 0.000000 -0.000000 0.000000 0.000000 0.311111 1.655397 0.474873 -1.094084 -5.114801 0.702911 5.774561 8.243453 -2.119297 0.000000 0.000000 0.000000 0.000000 0.000000 0.000000 -3.847180 -0.484176 -26.575661 6.492950 3.986638 -0.167506 -13.280667 1.897120 32.158061 0.000000 0.000000 0.000000 0.135896 -0.156031 -26.592933 -0.000000 0.000000 0.000000 7.064479 2.853980 1.568826 0.000000 0.000000 0.000000
-25.496398 74.362393 254.818672 -0.186782 0.079424 27.028714 0.130289 -0.155629 -27.028408 -0.000000 0.000000 0.000000 0.957688 -0.482220 -0.307182 0.000000 0.000000 0.000000 0.943110 0.724630 0.326730 -2.483562 -1.571763 -0.759378 6.409439 5.929634 1.297758 -6.919239 -3.376286 -0.627967 0.000000 0.000000 0.000000 0.000000 0.000000 0.000000 -0.000000 0.000000 0.000000 0.450209 2.353682 0.674967 -1.621262 -9.160839 1.559565 7.837178 10.774518 -4.080567 0.000000 0.000000 0.000000 0.000000 0.000000 0.000000 -2.756046 -0.377682 -27.013162 4.708157 2.947346 -0.078594 -8.258855 5.071714 27.059442 0.000000 0.000000 0.000000 0.130289 -0.155629 -27.028408 -0.000000 0.000000 0.000000 10.579485 3.411198 2.810270 0.000000 0.000000 0.000000
-25.480034 74.387306 254.793428 -0.163129 0.073060 27.116675 0.111897 -0.139384 -27.116435 -0.000000 0.000000 0.000000 1.132819 -0.404076 -0.388421 0.000000 0.000000 0.000000 1.012998 0.797842 0.371649 -2.955684 -1.903979 -0.946557 7.865311 7.296671 1.534071 -8.995351 -3.489386 -0.560845 0.000000 0.000000 0.000000 0.000000 0.000000 0.000000 -0.000000 0.000000 0.000000 0.574696 3.084612 0.878763 -2.274914 -12.738711 2.233106 10.569198 15.727271 -6.100236 0.000000 0.000000 0.000000 0.000000 0.000000 0.000000 -2.849804 -0.341362 -27.099620 4.837716 3.037607 -0.083777 -3.117736 6.430895 18.457125 0.000000 0.000000 0.000000 0.111897 -0.139384 -27.116435 -0.000000 0.000000 0.000000 13.352776 3.933676 3.748522 0.000000 0.000000 0.000000
-25.467339 74.344632 254.785562 -0.144714 0.046562 27.291588 0.107256 -0.107733 -27.291428 -0.000000 0.000000 0.000000 1.295807 -0.334140 -0.463801 0.000000 0.000000 0.000000 1.111461 0.887481 0.419791 -3.218951 -2.026934 -1.017317 8.234731 7.549748 1.564498 -8.930239 -3.340102 -0.461758 0.000000 0.000000 0.000000 0.000000 0.000000 0.000000 -0.000000 0.000000 0.000000 0.713704 3.676842 1.050786 -2.579487 -16.576145 3.037448 12.616272 18.383090 -8.362716 0.000000 0.000000 0.000000 0.000000 0.000000 0.000000 -1.875831 -0.217003 -27.277646 3.251325 2.152772 -0.031432 2.662955 6.813073 9.210768 0.000000 0.000000 0.000000 0.107256 -0.107733 -27.291428 -0.000000 0.000000 0.000000 14.696919 3.809006 4.460250 0.000000 0.000000 0.000000
